nColumns=19
nRows=58
DataType=double
version=3
OpenSimVersion=4.1
endheader
time	ground_force_1_vx	ground_force_1_vy	ground_force_1_vz	ground_force_1_px	ground_force_1_py	ground_force_1_pz	ground_force_1_mx	ground_force_1_my	ground_force_1_mz	ground_force_2_vx	ground_force_2_vy	ground_force_2_vz	ground_force_2_px	ground_force_2_py	ground_force_2_pz	ground_force_2_mx	ground_force_2_my	ground_force_2_mz
0	-3.90939	48.3116	4.81681	0.149884	0.006	-0.17864	0	0.299894	0	0	0	0	0.7199	0	-0.195642	0	0	0
0.01	-8.72368	75.1552	5.33359	0.158335	0.006	-0.177862	0	0.320025	0	0	0	0	0.7199	0	-0.195642	0	0	0
0.02	-14.9792	107.876	5.75988	0.165264	0.006	-0.177147	0	0.362464	0	0	0	0	0.7199	0	-0.195642	0	0	0
0.03	-22.8167	146.506	6.02275	0.170556	0.006	-0.176539	0	0.422879	0	0	0	0	0.7199	0	-0.195642	0	0	0
0.04	-32.316	190.651	6.02899	0.174991	0.006	-0.175982	0	0.499681	0	0	0	0	0.7199	0	-0.195642	0	0	0
0.05	-43.4337	239.475	5.66627	0.178964	0.006	-0.17544	0	0.59202	0	0	0	0	0.7199	0	-0.195642	0	0	0
0.06	-55.9065	291.846	4.81513	0.182673	0.006	-0.174889	0	0.698753	0	0	0	0	0.7199	0	-0.195642	0	0	0
0.07	-69.2493	346.438	3.36418	0.186202	0.006	-0.174312	0	0.81735	0	0	0	0	0.7199	0	-0.195642	0	0	0
0.08	-82.8444	401.713	1.23704	0.18958	0.006	-0.173703	0	0.94376	0	0	0	0	0.7199	0	-0.195642	0	0	0
0.09	-96.0322	455.985	-1.57292	0.192808	0.006	-0.173065	0	1.07436	0	0	0	0	0.7199	0	-0.195642	0	0	0
0.1	-108.171	507.605	-4.9822	0.195871	0.006	-0.172408	0	1.20773	0	0	0	0	0.7199	0	-0.195642	0	0	0
0.11	-118.687	555.134	-8.83306	0.198752	0.006	-0.171744	0	1.343	0	0	0	0	0.7199	0	-0.195642	0	0	0
0.12	-127.132	597.439	-12.9387	0.201437	0.006	-0.171081	0	1.47668	0	0	0	0	0.7199	0	-0.195642	0	0	0
0.13	-133.219	633.691	-17.0978	0.203918	0.006	-0.170425	0	1.60366	0	0	0	0	0.7199	0	-0.195642	0	0	0
0.14	-136.819	663.304	-21.0972	0.206196	0.006	-0.169782	0	1.71914	0	0	0	0	0.7199	0	-0.195642	0	0	0
0.15	-137.936	685.905	-24.7491	0.20828	0.006	-0.169152	0	1.81754	0	0	0	0	0.7199	0	-0.195642	0	0	0
0.16	-136.688	701.328	-27.9158	0.210191	0.006	-0.168532	0	1.89281	0	0	0	0	0.7199	0	-0.195642	0	0	0
0.17	-133.281	709.629	-30.5131	0.211957	0.006	-0.167913	0	1.93967	0	0	0	0	0.7199	0	-0.195642	0	0	0
0.18	-128	711.092	-32.5077	0.213615	0.006	-0.167283	0	1.95416	0	0	0	0	0.7199	0	-0.195642	0	0	0
0.19	-121.192	706.23	-33.9028	0.215208	0.006	-0.16663	0	1.93439	0	0	0	0	0.7199	0	-0.195642	0	0	0
0.2	-113.232	695.768	-34.7226	0.216784	0.006	-0.16594	0	1.88037	0	0	0	0	0.7199	0	-0.195642	0	0	0
0.21	-104.498	680.599	-35.004	0.218388	0.006	-0.165204	0	1.79354	0	0	0	0	0.7199	0	-0.195642	0	0	0
0.22	-95.3406	661.729	-34.7934	0.220065	0.006	-0.164411	0	1.67602	0	0	0	0	0.7199	0	-0.195642	0	0	0
0.23	-86.0611	640.216	-34.1469	0.221853	0.006	-0.163554	0	1.52978	0	0	0	0	0.7199	0	-0.195642	0	0	0
0.24	-76.9093	617.095	-33.1325	0.223781	0.006	-0.162626	0	1.35625	0	0	0	0	0.7199	0	-0.195642	0	0	0
0.25	-68.0815	593.328	-31.8277	0.225876	0.006	-0.161624	0	1.15625	0	0	0	0	0.7199	0	-0.195642	0	0	0
0.26	-59.7242	569.759	-30.3155	0.228158	0.006	-0.160543	0	0.930138	0	0	0	0	0.7199	0	-0.195642	0	0	0
0.27	-51.9392	547.112	-28.6807	0.23064	0.006	-0.159384	0	0.678227	0	0	0	0	0.7199	0	-0.195642	0	0	0
0.28	-44.786	525.984	-27.0071	0.233332	0.006	-0.158149	0	0.401137	0	0	0	0	0.7199	0	-0.195642	0	0	0
0.29	-38.2832	506.861	-25.3762	0.236236	0.006	-0.156848	0	0.100004	0	0	0	0	0.7199	0	-0.195642	0	0	0
0.3	-32.4122	490.13	-23.864	0.239346	0.006	-0.155493	0	-0.22329	0	0	0	0	0.7199	0	-0.195642	0	0	0
0.31	-27.1234	476.084	-22.5387	0.242648	0.006	-0.154105	0	-0.566087	0	0	0	0	0.7199	0	-0.195642	0	0	0
0.32	-22.3432	464.933	-21.4604	0.246117	0.006	-0.152708	0	-0.924933	0	0	0	0	0.7199	0	-0.195642	0	0	0
0.33	-17.9826	456.81	-20.6805	0.249727	0.006	-0.151328	0	-1.29563	0	0	0	0	0.7199	0	-0.195642	0	0	0
0.34	-13.944	451.779	-20.2408	0.253451	0.006	-0.149994	0	-1.67331	0	0	0	0	0.7199	0	-0.195642	0	0	0
0.35	-10.1261	449.845	-20.1698	0.257261	0.006	-0.148734	0	-2.05249	0	0	0	0	0.7199	0	-0.195642	0	0	0
0.36	-6.42737	450.969	-20.4785	0.261131	0.006	-0.147572	0	-2.42718	0	0	0	0	0.7199	0	-0.195642	0	0	0
0.37	-2.74971	455.078	-21.1565	0.265035	0.006	-0.146532	0	-2.79122	0	0	0	0	0.7199	0	-0.195642	0	0	0
0.38	0.998309	462.061	-22.1733	0.268951	0.006	-0.145632	0	-3.13858	0	0	0	0	0.7199	0	-0.195642	0	0	0
0.39	4.89863	471.773	-23.482	0.272855	0.006	-0.144886	0	-3.46351	0	0	0	0	0.7199	0	-0.195642	0	0	0
0.4	9.02049	484.022	-25.0226	0.276727	0.006	-0.144301	0	-3.7606	0	0	0	0	0.7199	0	-0.195642	0	0	0
0.41	13.4161	498.553	-26.7263	0.280551	0.006	-0.14388	0	-4.02463	0	0	0	0	0.7199	0	-0.195642	0	0	0
0.42	18.1168	515.037	-28.5188	0.284314	0.006	-0.143616	0	-4.25066	0	0	0	0	0.7199	0	-0.195642	0	0	0
0.43	23.1312	533.059	-30.3224	0.288008	0.006	-0.143501	0	-4.43419	0	0	0	0	0.7199	0	-0.195642	0	0	0
0.44	28.4449	552.112	-32.0552	0.291631	0.006	-0.143521	0	-4.5715	0	0	0	0	0.7199	0	-0.195642	0	0	0
0.45	34.022	571.603	-33.6326	0.295183	0.006	-0.143661	0	-4.65992	0	0	0	0	0.7199	0	-0.195642	0	0	0
0.46	39.8098	590.851	-34.9718	0.29867	0.006	-0.143904	0	-4.69778	0	0	0	0	0.7199	0	-0.195642	0	0	0
0.47	45.7459	609.108	-35.997	0.302097	0.006	-0.144233	0	-4.6845	0	0	0	0	0.7199	0	-0.195642	0	0	0
0.48	51.7625	625.576	-36.6429	0.305473	0.006	-0.144632	0	-4.62102	0	0	0	0	0.7199	0	-0.195642	0	0	0
0.49	57.7872	639.444	-36.8543	0.308803	0.006	-0.145085	0	-4.5106	0	0	0	0	0.7199	0	-0.195642	0	0	0
0.5	63.7408	649.92	-36.5858	0.312093	0.006	-0.14558	0	-4.35922	0	0	0	0	0.7199	0	-0.195642	0	0	0
0.51	69.5326	656.259	-35.8064	0.315344	0.006	-0.146108	0	-4.1752	0	0	0	0	0.7199	0	-0.195642	0	0	0
0.52	75.0553	657.783	-34.5054	0.318554	0.006	-0.146661	0	-3.96801	0	-0.512513	35.7146	-3.10418	0.756683	0.006	-0.212315	0	0.397402	0
0.53	80.1793	653.909	-32.6986	0.321722	0.006	-0.147231	0	-3.74698	0	-3.65421	59.429	-3.04434	0.784979	0.006	-0.224511	0	0.431014	0
0.54	84.7489	644.177	-30.4315	0.324844	0.006	-0.147815	0	-3.52005	0	-8.00555	88.5259	-2.90564	0.800501	0.006	-0.230659	0	0.442284	0
0.55	88.5805	628.276	-27.7764	0.327922	0.006	-0.148404	0	-3.29303	0	-13.7532	123.107	-2.66498	0.81067	0.006	-0.234276	0	0.441651	0
0.56	91.4674	606.071	-24.8266	0.330963	0.006	-0.148993	0	-3.06941	0	-21.0545	162.914	-2.29554	0.818173	0.006	-0.236619	0	0.432049	0
0.57	93.193	577.644	-21.6904	0.333977	0.006	-0.149575	0	-2.85052	0	-29.9474	207.32	-1.75976	0.824219	0.006	-0.238251	0	0.414435	0
